<svg xmlns="http://www.w3.org/2000/svg" viewBox="0 0 512 512">
  <rect width="512" height="512" rx="80" fill="#10b981"/>
  <g fill="white">
    <!-- Receipt icon -->
    <path d="M176 96h160c17.7 0 32 14.3 32 32v320c0 8.8-7.2 16-16 16-4.4 0-8.6-1.8-11.6-5l-36.4-36.4-36.4 36.4c-6.2 6.2-16.4 6.2-22.6 0l-36.4-36.4-36.4 36.4c-3 3.2-7.2 5-11.6 5-8.8 0-16-7.2-16-16V128c0-17.7 14.3-32 32-32z"/>
    <!-- Money lines -->
    <rect x="208" y="160" width="96" height="16" rx="4"/>
    <rect x="208" y="208" width="96" height="16" rx="4"/>
    <rect x="208" y="256" width="64" height="16" rx="4"/>
  </g>
</svg>
